<mxfile host="65bd71144e">
    <diagram id="En2Dqz9_ilCBB6c_Zi7Z" name="Page-1">
        <mxGraphModel dx="1906" dy="1667" grid="1" gridSize="10" guides="1" tooltips="1" connect="1" arrows="1" fold="1" page="1" pageScale="1" pageWidth="850" pageHeight="1100" math="0" shadow="0">
            <root>
                <mxCell id="0"/>
                <mxCell id="1" parent="0"/>
                <mxCell id="2" value="" style="rounded=0;whiteSpace=wrap;html=1;" parent="1" vertex="1">
                    <mxGeometry x="-15" y="2.5" width="840" height="60" as="geometry"/>
                </mxCell>
                <mxCell id="7" value="image" style="whiteSpace=wrap;html=1;aspect=fixed;" parent="1" vertex="1">
                    <mxGeometry x="40" y="80" width="80" height="80" as="geometry"/>
                </mxCell>
                <mxCell id="23" value="" style="rounded=0;whiteSpace=wrap;html=1;" parent="1" vertex="1">
                    <mxGeometry x="5" y="390" width="830" height="125" as="geometry"/>
                </mxCell>
                <mxCell id="35" value="logo" style="ellipse;whiteSpace=wrap;html=1;aspect=fixed;" parent="1" vertex="1">
                    <mxGeometry x="250" y="15" width="33.75" height="33.75" as="geometry"/>
                </mxCell>
                <mxCell id="36" value="logo" style="ellipse;whiteSpace=wrap;html=1;aspect=fixed;" parent="1" vertex="1">
                    <mxGeometry x="420" y="20.630000000000003" width="31.25" height="31.25" as="geometry"/>
                </mxCell>
                <mxCell id="39" value="Phòng Ban" style="text;html=1;resizable=0;autosize=1;align=center;verticalAlign=middle;points=[];fillColor=none;strokeColor=none;rounded=0;" parent="1" vertex="1">
                    <mxGeometry x="320" y="31.25" width="70" height="20" as="geometry"/>
                </mxCell>
                <mxCell id="49" value="" style="dashed=0;outlineConnect=0;html=1;align=center;labelPosition=center;verticalLabelPosition=bottom;verticalAlign=top;shape=mxgraph.weblogos.google" parent="1" vertex="1">
                    <mxGeometry x="1275" y="432.65" width="42.6" height="49.4" as="geometry"/>
                </mxCell>
                <mxCell id="50" value="" style="dashed=0;outlineConnect=0;html=1;align=center;labelPosition=center;verticalLabelPosition=bottom;verticalAlign=top;shape=mxgraph.weblogos.gmail" parent="1" vertex="1">
                    <mxGeometry x="610" y="435.95" width="50" height="34.05" as="geometry"/>
                </mxCell>
                <mxCell id="51" value="" style="dashed=0;outlineConnect=0;html=1;align=center;labelPosition=center;verticalLabelPosition=bottom;verticalAlign=top;shape=mxgraph.weblogos.youtube_2;fillColor=#FF2626;gradientColor=#B5171F" parent="1" vertex="1">
                    <mxGeometry x="563.6" y="435.84999999999997" width="46.400000000000006" height="32.6" as="geometry"/>
                </mxCell>
                <mxCell id="52" value="" style="dashed=0;outlineConnect=0;html=1;align=center;labelPosition=center;verticalLabelPosition=bottom;verticalAlign=top;shape=mxgraph.weblogos.twitter;fillColor=#1DA1F2;strokeColor=none" parent="1" vertex="1">
                    <mxGeometry x="513.6" y="430.84999999999997" width="50" height="39.5" as="geometry"/>
                </mxCell>
                <mxCell id="54" value="" style="dashed=0;outlineConnect=0;html=1;align=center;labelPosition=center;verticalLabelPosition=bottom;verticalAlign=top;shape=mxgraph.webicons.facebook;fillColor=#6294E4;gradientColor=#1A2665" parent="1" vertex="1">
                    <mxGeometry x="425" y="430.85" width="45" height="40" as="geometry"/>
                </mxCell>
                <mxCell id="56" value="Address" style="rounded=0;whiteSpace=wrap;html=1;" parent="1" vertex="1">
                    <mxGeometry x="70" y="415" width="100" height="25" as="geometry"/>
                </mxCell>
                <mxCell id="58" value="" style="sketch=0;pointerEvents=1;shadow=0;dashed=0;html=1;strokeColor=none;fillColor=#505050;labelPosition=center;verticalLabelPosition=bottom;verticalAlign=top;outlineConnect=0;align=center;shape=mxgraph.office.devices.phone_traditional;" parent="1" vertex="1">
                    <mxGeometry x="70" y="475" width="40" height="25" as="geometry"/>
                </mxCell>
                <mxCell id="59" value="" style="verticalLabelPosition=bottom;shadow=0;dashed=0;align=center;html=1;verticalAlign=top;strokeWidth=1;shape=mxgraph.mockup.misc.mail2;strokeColor=#999999;" parent="1" vertex="1">
                    <mxGeometry x="70" y="444.7" width="40" height="25.3" as="geometry"/>
                </mxCell>
                <mxCell id="60" value="logo" style="ellipse;shape=doubleEllipse;whiteSpace=wrap;html=1;" parent="1" vertex="1">
                    <mxGeometry x="10" y="8.75" width="90" height="42.5" as="geometry"/>
                </mxCell>
                <mxCell id="61" value="logo" style="ellipse;whiteSpace=wrap;html=1;aspect=fixed;" parent="1" vertex="1">
                    <mxGeometry x="105" y="12.5" width="35" height="35" as="geometry"/>
                </mxCell>
                <mxCell id="63" value="image" style="whiteSpace=wrap;html=1;aspect=fixed;" parent="1" vertex="1">
                    <mxGeometry x="150" y="80" width="80" height="80" as="geometry"/>
                </mxCell>
                <mxCell id="72" value="" style="rounded=0;whiteSpace=wrap;html=1;" parent="1" vertex="1">
                    <mxGeometry x="860" y="6.25" width="710" height="60" as="geometry"/>
                </mxCell>
                <mxCell id="74" value="" style="rounded=0;whiteSpace=wrap;html=1;direction=south;" parent="1" vertex="1">
                    <mxGeometry x="1970" y="190" width="170" height="90" as="geometry"/>
                </mxCell>
                <mxCell id="75" value="" style="rounded=0;whiteSpace=wrap;html=1;" parent="1" vertex="1">
                    <mxGeometry x="1970" y="80" width="170" height="90" as="geometry"/>
                </mxCell>
                <mxCell id="76" value="" style="rounded=0;whiteSpace=wrap;html=1;" parent="1" vertex="1">
                    <mxGeometry x="1750" y="80" width="170" height="90" as="geometry"/>
                </mxCell>
                <mxCell id="77" value="" style="rounded=0;whiteSpace=wrap;html=1;" parent="1" vertex="1">
                    <mxGeometry x="1760" y="200" width="170" height="90" as="geometry"/>
                </mxCell>
                <mxCell id="78" value="" style="rounded=0;whiteSpace=wrap;html=1;" parent="1" vertex="1">
                    <mxGeometry x="2185" y="80" width="170" height="90" as="geometry"/>
                </mxCell>
                <mxCell id="79" value="phòng" style="text;html=1;resizable=0;autosize=1;align=center;verticalAlign=middle;points=[];fillColor=none;strokeColor=none;rounded=0;" parent="1" vertex="1">
                    <mxGeometry x="1995" y="200" width="50" height="20" as="geometry"/>
                </mxCell>
                <mxCell id="80" value="số người" style="text;html=1;resizable=0;autosize=1;align=center;verticalAlign=middle;points=[];fillColor=none;strokeColor=none;rounded=0;" parent="1" vertex="1">
                    <mxGeometry x="1990" y="240" width="60" height="20" as="geometry"/>
                </mxCell>
                <mxCell id="82" value="" style="rounded=0;whiteSpace=wrap;html=1;" parent="1" vertex="1">
                    <mxGeometry x="855" y="390" width="720" height="125" as="geometry"/>
                </mxCell>
                <mxCell id="83" value="phòng" style="text;html=1;resizable=0;autosize=1;align=center;verticalAlign=middle;points=[];fillColor=none;strokeColor=none;rounded=0;" parent="1" vertex="1">
                    <mxGeometry x="2000" y="90" width="50" height="20" as="geometry"/>
                </mxCell>
                <mxCell id="84" value="số người" style="text;html=1;resizable=0;autosize=1;align=center;verticalAlign=middle;points=[];fillColor=none;strokeColor=none;rounded=0;" parent="1" vertex="1">
                    <mxGeometry x="1990" y="130" width="60" height="20" as="geometry"/>
                </mxCell>
                <mxCell id="85" value="phòng" style="text;html=1;resizable=0;autosize=1;align=center;verticalAlign=middle;points=[];fillColor=none;strokeColor=none;rounded=0;" parent="1" vertex="1">
                    <mxGeometry x="1770" y="90" width="50" height="20" as="geometry"/>
                </mxCell>
                <mxCell id="86" value="số người" style="text;html=1;resizable=0;autosize=1;align=center;verticalAlign=middle;points=[];fillColor=none;strokeColor=none;rounded=0;" parent="1" vertex="1">
                    <mxGeometry x="1760" y="130" width="60" height="20" as="geometry"/>
                </mxCell>
                <mxCell id="87" value="" style="dashed=0;outlineConnect=0;html=1;align=center;labelPosition=center;verticalLabelPosition=bottom;verticalAlign=top;shape=mxgraph.weblogos.gmail" parent="1" vertex="1">
                    <mxGeometry x="1461.4" y="430.85" width="50" height="40" as="geometry"/>
                </mxCell>
                <mxCell id="88" value="" style="dashed=0;outlineConnect=0;html=1;align=center;labelPosition=center;verticalLabelPosition=bottom;verticalAlign=top;shape=mxgraph.weblogos.youtube_2;fillColor=#FF2626;gradientColor=#B5171F" parent="1" vertex="1">
                    <mxGeometry x="1415" y="432.5" width="46.4" height="39.15" as="geometry"/>
                </mxCell>
                <mxCell id="89" value="" style="dashed=0;outlineConnect=0;html=1;align=center;labelPosition=center;verticalLabelPosition=bottom;verticalAlign=top;shape=mxgraph.weblogos.twitter;fillColor=#1DA1F2;strokeColor=none" parent="1" vertex="1">
                    <mxGeometry x="1365" y="432.49999999999994" width="50" height="39.5" as="geometry"/>
                </mxCell>
                <mxCell id="90" value="" style="dashed=0;outlineConnect=0;html=1;align=center;labelPosition=center;verticalLabelPosition=bottom;verticalAlign=top;shape=mxgraph.weblogos.google" parent="1" vertex="1">
                    <mxGeometry x="2130" y="461.7" width="47.6" height="52.2" as="geometry"/>
                </mxCell>
                <mxCell id="91" value="" style="dashed=0;outlineConnect=0;html=1;align=center;labelPosition=center;verticalLabelPosition=bottom;verticalAlign=top;shape=mxgraph.webicons.facebook;fillColor=#6294E4;gradientColor=#1A2665" parent="1" vertex="1">
                    <mxGeometry x="1265" y="429.85" width="45" height="35.7" as="geometry"/>
                </mxCell>
                <mxCell id="92" value="Address" style="rounded=0;whiteSpace=wrap;html=1;" parent="1" vertex="1">
                    <mxGeometry x="920" y="407.5" width="100" height="25" as="geometry"/>
                </mxCell>
                <mxCell id="93" value="" style="verticalLabelPosition=bottom;shadow=0;dashed=0;align=center;html=1;verticalAlign=top;strokeWidth=1;shape=mxgraph.mockup.misc.mail2;strokeColor=#999999;" parent="1" vertex="1">
                    <mxGeometry x="925" y="439.84999999999997" width="40" height="25.3" as="geometry"/>
                </mxCell>
                <mxCell id="94" value="" style="sketch=0;pointerEvents=1;shadow=0;dashed=0;html=1;strokeColor=none;fillColor=#505050;labelPosition=center;verticalLabelPosition=bottom;verticalAlign=top;outlineConnect=0;align=center;shape=mxgraph.office.devices.phone_traditional;" parent="1" vertex="1">
                    <mxGeometry x="925" y="472.5" width="40" height="25" as="geometry"/>
                </mxCell>
                <mxCell id="95" value="" style="dashed=0;outlineConnect=0;html=1;align=center;labelPosition=center;verticalLabelPosition=bottom;verticalAlign=top;shape=mxgraph.weblogos.google" parent="1" vertex="1">
                    <mxGeometry x="471" y="427.55" width="42.6" height="49.4" as="geometry"/>
                </mxCell>
                <mxCell id="96" value="logo" style="ellipse;shape=doubleEllipse;whiteSpace=wrap;html=1;" parent="1" vertex="1">
                    <mxGeometry x="860" y="17.5" width="90" height="42.5" as="geometry"/>
                </mxCell>
                <mxCell id="97" value="logo" style="ellipse;whiteSpace=wrap;html=1;aspect=fixed;" parent="1" vertex="1">
                    <mxGeometry x="1100" y="23.75" width="35" height="35" as="geometry"/>
                </mxCell>
                <mxCell id="98" value="logo" style="ellipse;whiteSpace=wrap;html=1;aspect=fixed;" parent="1" vertex="1">
                    <mxGeometry x="1265" y="23.759999999999998" width="36.24" height="36.24" as="geometry"/>
                </mxCell>
                <mxCell id="99" value="logo" style="ellipse;whiteSpace=wrap;html=1;aspect=fixed;" parent="1" vertex="1">
                    <mxGeometry x="965" y="21.25" width="35" height="35" as="geometry"/>
                </mxCell>
                <mxCell id="103" value="phòng" style="text;html=1;resizable=0;autosize=1;align=center;verticalAlign=middle;points=[];fillColor=none;strokeColor=none;rounded=0;" parent="1" vertex="1">
                    <mxGeometry x="2200" y="90" width="50" height="20" as="geometry"/>
                </mxCell>
                <mxCell id="104" value="số người" style="text;html=1;resizable=0;autosize=1;align=center;verticalAlign=middle;points=[];fillColor=none;strokeColor=none;rounded=0;" parent="1" vertex="1">
                    <mxGeometry x="2195" y="130" width="60" height="20" as="geometry"/>
                </mxCell>
                <mxCell id="105" value="số người" style="text;html=1;resizable=0;autosize=1;align=center;verticalAlign=middle;points=[];fillColor=none;strokeColor=none;rounded=0;" parent="1" vertex="1">
                    <mxGeometry x="1785" y="250" width="60" height="20" as="geometry"/>
                </mxCell>
                <mxCell id="106" value="phòng" style="text;html=1;resizable=0;autosize=1;align=center;verticalAlign=middle;points=[];fillColor=none;strokeColor=none;rounded=0;" parent="1" vertex="1">
                    <mxGeometry x="1790" y="215" width="50" height="20" as="geometry"/>
                </mxCell>
                <mxCell id="107" value="" style="rounded=0;whiteSpace=wrap;html=1;" parent="1" vertex="1">
                    <mxGeometry x="1720" y="5" width="670" height="60" as="geometry"/>
                </mxCell>
                <mxCell id="108" value="" style="rounded=0;whiteSpace=wrap;html=1;" parent="1" vertex="1">
                    <mxGeometry x="2575" width="650" height="60" as="geometry"/>
                </mxCell>
                <mxCell id="109" value="" style="rounded=0;whiteSpace=wrap;html=1;" parent="1" vertex="1">
                    <mxGeometry x="1731.25" y="416.2" width="660" height="125" as="geometry"/>
                </mxCell>
                <mxCell id="111" value="" style="rounded=0;whiteSpace=wrap;html=1;" parent="1" vertex="1">
                    <mxGeometry x="2580" y="435.85" width="660" height="125" as="geometry"/>
                </mxCell>
                <mxCell id="112" value="image" style="whiteSpace=wrap;html=1;aspect=fixed;" parent="1" vertex="1">
                    <mxGeometry x="920" y="115" width="230" height="230" as="geometry"/>
                </mxCell>
                <mxCell id="115" value="" style="whiteSpace=wrap;html=1;aspect=fixed;fontSize=36;" parent="1" vertex="1">
                    <mxGeometry x="2650" y="80" width="110" height="110" as="geometry"/>
                </mxCell>
                <mxCell id="116" value="" style="whiteSpace=wrap;html=1;aspect=fixed;fontSize=36;" parent="1" vertex="1">
                    <mxGeometry x="2785" y="80" width="115" height="115" as="geometry"/>
                </mxCell>
                <mxCell id="117" value="" style="whiteSpace=wrap;html=1;aspect=fixed;fontSize=36;" parent="1" vertex="1">
                    <mxGeometry x="2785" y="197.5" width="115" height="115" as="geometry"/>
                </mxCell>
                <mxCell id="118" value="" style="whiteSpace=wrap;html=1;aspect=fixed;fontSize=36;" parent="1" vertex="1">
                    <mxGeometry x="2647.72" y="200" width="112.28" height="112.28" as="geometry"/>
                </mxCell>
                <mxCell id="119" value="" style="whiteSpace=wrap;html=1;aspect=fixed;fontSize=36;" parent="1" vertex="1">
                    <mxGeometry x="2930" y="80" width="110" height="110" as="geometry"/>
                </mxCell>
                <mxCell id="120" value="" style="whiteSpace=wrap;html=1;aspect=fixed;fontSize=36;" parent="1" vertex="1">
                    <mxGeometry x="2930" y="197.5" width="110" height="110" as="geometry"/>
                </mxCell>
                <mxCell id="121" value="" style="whiteSpace=wrap;html=1;aspect=fixed;fontSize=36;" parent="1" vertex="1">
                    <mxGeometry x="2650" y="320" width="108.4" height="108.4" as="geometry"/>
                </mxCell>
                <mxCell id="122" value="name" style="text;html=1;resizable=0;autosize=1;align=center;verticalAlign=middle;points=[];fillColor=none;strokeColor=none;rounded=0;" parent="1" vertex="1">
                    <mxGeometry x="55" y="160" width="50" height="20" as="geometry"/>
                </mxCell>
                <mxCell id="123" value="name" style="text;html=1;resizable=0;autosize=1;align=center;verticalAlign=middle;points=[];fillColor=none;strokeColor=none;rounded=0;" parent="1" vertex="1">
                    <mxGeometry x="165" y="160" width="50" height="20" as="geometry"/>
                </mxCell>
                <mxCell id="124" value="name" style="text;html=1;resizable=0;autosize=1;align=center;verticalAlign=middle;points=[];fillColor=none;strokeColor=none;rounded=0;" parent="1" vertex="1">
                    <mxGeometry x="155" y="370" width="50" height="20" as="geometry"/>
                </mxCell>
                <mxCell id="125" value="name" style="text;html=1;resizable=0;autosize=1;align=center;verticalAlign=middle;points=[];fillColor=none;strokeColor=none;rounded=0;" parent="1" vertex="1">
                    <mxGeometry x="610" y="270" width="50" height="20" as="geometry"/>
                </mxCell>
                <mxCell id="126" value="name" style="text;html=1;resizable=0;autosize=1;align=center;verticalAlign=middle;points=[];fillColor=none;strokeColor=none;rounded=0;" parent="1" vertex="1">
                    <mxGeometry x="610" y="160" width="50" height="20" as="geometry"/>
                </mxCell>
                <mxCell id="127" value="name" style="text;html=1;resizable=0;autosize=1;align=center;verticalAlign=middle;points=[];fillColor=none;strokeColor=none;rounded=0;" parent="1" vertex="1">
                    <mxGeometry x="505" y="160" width="50" height="20" as="geometry"/>
                </mxCell>
                <mxCell id="128" value="name" style="text;html=1;resizable=0;autosize=1;align=center;verticalAlign=middle;points=[];fillColor=none;strokeColor=none;rounded=0;" parent="1" vertex="1">
                    <mxGeometry x="380" y="160" width="50" height="20" as="geometry"/>
                </mxCell>
                <mxCell id="129" value="name" style="text;html=1;resizable=0;autosize=1;align=center;verticalAlign=middle;points=[];fillColor=none;strokeColor=none;rounded=0;" parent="1" vertex="1">
                    <mxGeometry x="275" y="160" width="50" height="20" as="geometry"/>
                </mxCell>
                <mxCell id="130" value="name" style="text;html=1;resizable=0;autosize=1;align=center;verticalAlign=middle;points=[];fillColor=none;strokeColor=none;rounded=0;" parent="1" vertex="1">
                    <mxGeometry x="390" y="270" width="50" height="20" as="geometry"/>
                </mxCell>
                <mxCell id="131" value="name" style="text;html=1;resizable=0;autosize=1;align=center;verticalAlign=middle;points=[];fillColor=none;strokeColor=none;rounded=0;" parent="1" vertex="1">
                    <mxGeometry x="160" y="270" width="50" height="20" as="geometry"/>
                </mxCell>
                <mxCell id="132" value="name" style="text;html=1;resizable=0;autosize=1;align=center;verticalAlign=middle;points=[];fillColor=none;strokeColor=none;rounded=0;" parent="1" vertex="1">
                    <mxGeometry x="50" y="370" width="50" height="20" as="geometry"/>
                </mxCell>
                <mxCell id="133" value="name" style="text;html=1;resizable=0;autosize=1;align=center;verticalAlign=middle;points=[];fillColor=none;strokeColor=none;rounded=0;" parent="1" vertex="1">
                    <mxGeometry x="55" y="270" width="50" height="20" as="geometry"/>
                </mxCell>
                <mxCell id="134" value="name" style="text;html=1;resizable=0;autosize=1;align=center;verticalAlign=middle;points=[];fillColor=none;strokeColor=none;rounded=0;" parent="1" vertex="1">
                    <mxGeometry x="275" y="270" width="50" height="20" as="geometry"/>
                </mxCell>
                <mxCell id="135" value="image" style="whiteSpace=wrap;html=1;aspect=fixed;" parent="1" vertex="1">
                    <mxGeometry x="150" y="290" width="80" height="80" as="geometry"/>
                </mxCell>
                <mxCell id="136" value="image" style="whiteSpace=wrap;html=1;aspect=fixed;" parent="1" vertex="1">
                    <mxGeometry x="375" y="80" width="80" height="80" as="geometry"/>
                </mxCell>
                <mxCell id="137" value="image" style="whiteSpace=wrap;html=1;aspect=fixed;" parent="1" vertex="1">
                    <mxGeometry x="267.5" y="80" width="80" height="80" as="geometry"/>
                </mxCell>
                <mxCell id="138" value="image" style="whiteSpace=wrap;html=1;aspect=fixed;" parent="1" vertex="1">
                    <mxGeometry x="483.6" y="80" width="80" height="80" as="geometry"/>
                </mxCell>
                <mxCell id="139" value="image" style="whiteSpace=wrap;html=1;aspect=fixed;" parent="1" vertex="1">
                    <mxGeometry x="267.5" y="190" width="80" height="80" as="geometry"/>
                </mxCell>
                <mxCell id="140" value="image" style="whiteSpace=wrap;html=1;aspect=fixed;" parent="1" vertex="1">
                    <mxGeometry x="595" y="80" width="80" height="80" as="geometry"/>
                </mxCell>
                <mxCell id="141" value="image" style="whiteSpace=wrap;html=1;aspect=fixed;" parent="1" vertex="1">
                    <mxGeometry x="375" y="185" width="80" height="80" as="geometry"/>
                </mxCell>
                <mxCell id="142" value="image" style="whiteSpace=wrap;html=1;aspect=fixed;" parent="1" vertex="1">
                    <mxGeometry x="150" y="185" width="80" height="80" as="geometry"/>
                </mxCell>
                <mxCell id="143" value="image" style="whiteSpace=wrap;html=1;aspect=fixed;" parent="1" vertex="1">
                    <mxGeometry x="40" y="190" width="80" height="80" as="geometry"/>
                </mxCell>
                <mxCell id="144" value="image" style="whiteSpace=wrap;html=1;aspect=fixed;" parent="1" vertex="1">
                    <mxGeometry x="40" y="290" width="80" height="80" as="geometry"/>
                </mxCell>
                <mxCell id="145" value="image" style="whiteSpace=wrap;html=1;aspect=fixed;" parent="1" vertex="1">
                    <mxGeometry x="483.6" y="185" width="80" height="80" as="geometry"/>
                </mxCell>
                <mxCell id="146" value="image" style="whiteSpace=wrap;html=1;aspect=fixed;" parent="1" vertex="1">
                    <mxGeometry x="595" y="185" width="80" height="80" as="geometry"/>
                </mxCell>
                <mxCell id="148" style="edgeStyle=none;html=1;fillColor=#00FFFF;" parent="1" source="147" target="145" edge="1">
                    <mxGeometry relative="1" as="geometry"/>
                </mxCell>
                <mxCell id="147" value="name" style="text;html=1;resizable=0;autosize=1;align=center;verticalAlign=middle;points=[];fillColor=none;strokeColor=none;rounded=0;" parent="1" vertex="1">
                    <mxGeometry x="498.6" y="270" width="50" height="20" as="geometry"/>
                </mxCell>
                <mxCell id="149" value="Thông tin nhân viên" style="text;html=1;resizable=0;autosize=1;align=center;verticalAlign=middle;points=[];fillColor=#00FFFF;strokeColor=none;rounded=0;" parent="1" vertex="1">
                    <mxGeometry x="1195" y="115" width="120" height="20" as="geometry"/>
                </mxCell>
                <mxCell id="150" value="ngày sinh" style="text;html=1;resizable=0;autosize=1;align=center;verticalAlign=middle;points=[];fillColor=#66FFFF;strokeColor=none;rounded=0;" parent="1" vertex="1">
                    <mxGeometry x="1218.75" y="150" width="70" height="20" as="geometry"/>
                </mxCell>
                <mxCell id="151" value="ngày vào công ty" style="text;html=1;resizable=0;autosize=1;align=center;verticalAlign=middle;points=[];fillColor=#66FFFF;strokeColor=none;rounded=0;" parent="1" vertex="1">
                    <mxGeometry x="1200" y="180" width="110" height="20" as="geometry"/>
                </mxCell>
                <mxCell id="152" value="phòng ban" style="text;html=1;resizable=0;autosize=1;align=center;verticalAlign=middle;points=[];fillColor=#66FFFF;strokeColor=none;rounded=0;" parent="1" vertex="1">
                    <mxGeometry x="1218.75" y="205" width="70" height="20" as="geometry"/>
                </mxCell>
                <mxCell id="153" value="số ngày nghỉ còn lại" style="text;html=1;resizable=0;autosize=1;align=center;verticalAlign=middle;points=[];fillColor=#66FFFF;strokeColor=none;rounded=0;" parent="1" vertex="1">
                    <mxGeometry x="1195" y="230" width="120" height="20" as="geometry"/>
                </mxCell>
                <mxCell id="154" value="số nagfy đã làm thêm" style="text;html=1;resizable=0;autosize=1;align=center;verticalAlign=middle;points=[];fillColor=#66FFFF;strokeColor=none;rounded=0;" parent="1" vertex="1">
                    <mxGeometry x="1188.75" y="260" width="130" height="20" as="geometry"/>
                </mxCell>
                <mxCell id="156" value="" style="dashed=0;outlineConnect=0;html=1;align=center;labelPosition=center;verticalLabelPosition=bottom;verticalAlign=top;shape=mxgraph.weblogos.gmail" parent="1" vertex="1">
                    <mxGeometry x="2290" y="457.4" width="50" height="40" as="geometry"/>
                </mxCell>
                <mxCell id="157" value="" style="dashed=0;outlineConnect=0;html=1;align=center;labelPosition=center;verticalLabelPosition=bottom;verticalAlign=top;shape=mxgraph.weblogos.youtube_2;fillColor=#FF2626;gradientColor=#B5171F" parent="1" vertex="1">
                    <mxGeometry x="2243.6" y="461.70000000000005" width="46.400000000000006" height="32.6" as="geometry"/>
                </mxCell>
                <mxCell id="158" value="" style="dashed=0;outlineConnect=0;html=1;align=center;labelPosition=center;verticalLabelPosition=bottom;verticalAlign=top;shape=mxgraph.weblogos.twitter;fillColor=#1DA1F2;strokeColor=none" parent="1" vertex="1">
                    <mxGeometry x="2193.6" y="460.49999999999994" width="50" height="39.5" as="geometry"/>
                </mxCell>
                <mxCell id="159" value="" style="dashed=0;outlineConnect=0;html=1;align=center;labelPosition=center;verticalLabelPosition=bottom;verticalAlign=top;shape=mxgraph.weblogos.google" parent="1" vertex="1">
                    <mxGeometry x="3007.4" y="458.95" width="42.6" height="45.77" as="geometry"/>
                </mxCell>
                <mxCell id="160" value="" style="dashed=0;outlineConnect=0;html=1;align=center;labelPosition=center;verticalLabelPosition=bottom;verticalAlign=top;shape=mxgraph.webicons.facebook;fillColor=#6294E4;gradientColor=#1A2665" parent="1" vertex="1">
                    <mxGeometry x="2097.4" y="457.4" width="42.6" height="42.6" as="geometry"/>
                </mxCell>
                <mxCell id="161" value="" style="dashed=0;outlineConnect=0;html=1;align=center;labelPosition=center;verticalLabelPosition=bottom;verticalAlign=top;shape=mxgraph.weblogos.google" parent="1" vertex="1">
                    <mxGeometry x="1310" y="429.85" width="50" height="40.15" as="geometry"/>
                </mxCell>
                <mxCell id="162" value="Address" style="rounded=0;whiteSpace=wrap;html=1;" parent="1" vertex="1">
                    <mxGeometry x="1820" y="428.95" width="100" height="25" as="geometry"/>
                </mxCell>
                <mxCell id="163" value="" style="verticalLabelPosition=bottom;shadow=0;dashed=0;align=center;html=1;verticalAlign=top;strokeWidth=1;shape=mxgraph.mockup.misc.mail2;strokeColor=#999999;" parent="1" vertex="1">
                    <mxGeometry x="1850" y="458.24999999999994" width="40" height="25.3" as="geometry"/>
                </mxCell>
                <mxCell id="164" value="" style="sketch=0;pointerEvents=1;shadow=0;dashed=0;html=1;strokeColor=none;fillColor=#505050;labelPosition=center;verticalLabelPosition=bottom;verticalAlign=top;outlineConnect=0;align=center;shape=mxgraph.office.devices.phone_traditional;" parent="1" vertex="1">
                    <mxGeometry x="1850" y="493.65" width="40" height="25" as="geometry"/>
                </mxCell>
                <mxCell id="166" value="" style="dashed=0;outlineConnect=0;html=1;align=center;labelPosition=center;verticalLabelPosition=bottom;verticalAlign=top;shape=mxgraph.weblogos.gmail" parent="1" vertex="1">
                    <mxGeometry x="3156.4" y="461.27" width="43.6" height="38.73" as="geometry"/>
                </mxCell>
                <mxCell id="167" value="" style="dashed=0;outlineConnect=0;html=1;align=center;labelPosition=center;verticalLabelPosition=bottom;verticalAlign=top;shape=mxgraph.weblogos.youtube_2;fillColor=#FF2626;gradientColor=#B5171F" parent="1" vertex="1">
                    <mxGeometry x="3100" y="464.90000000000003" width="46.400000000000006" height="32.6" as="geometry"/>
                </mxCell>
                <mxCell id="168" value="" style="dashed=0;outlineConnect=0;html=1;align=center;labelPosition=center;verticalLabelPosition=bottom;verticalAlign=top;shape=mxgraph.weblogos.twitter;fillColor=#1DA1F2;strokeColor=none" parent="1" vertex="1">
                    <mxGeometry x="3050" y="461.69999999999993" width="50" height="39.5" as="geometry"/>
                </mxCell>
                <mxCell id="169" value="" style="dashed=0;outlineConnect=0;html=1;align=center;labelPosition=center;verticalLabelPosition=bottom;verticalAlign=top;shape=mxgraph.weblogos.google" parent="1" vertex="1">
                    <mxGeometry x="2142.4" y="454.59999999999997" width="42.6" height="52.6" as="geometry"/>
                </mxCell>
                <mxCell id="170" value="" style="dashed=0;outlineConnect=0;html=1;align=center;labelPosition=center;verticalLabelPosition=bottom;verticalAlign=top;shape=mxgraph.webicons.facebook;fillColor=#6294E4;gradientColor=#1A2665" parent="1" vertex="1">
                    <mxGeometry x="2953" y="458.95000000000005" width="45" height="45.7" as="geometry"/>
                </mxCell>
                <mxCell id="171" value="Address" style="rounded=0;whiteSpace=wrap;html=1;" parent="1" vertex="1">
                    <mxGeometry x="2610" y="443.45" width="100" height="25" as="geometry"/>
                </mxCell>
                <mxCell id="172" value="" style="verticalLabelPosition=bottom;shadow=0;dashed=0;align=center;html=1;verticalAlign=top;strokeWidth=1;shape=mxgraph.mockup.misc.mail2;strokeColor=#999999;" parent="1" vertex="1">
                    <mxGeometry x="2630" y="487.19999999999993" width="40" height="25.3" as="geometry"/>
                </mxCell>
                <mxCell id="173" value="" style="sketch=0;pointerEvents=1;shadow=0;dashed=0;html=1;strokeColor=none;fillColor=#505050;labelPosition=center;verticalLabelPosition=bottom;verticalAlign=top;outlineConnect=0;align=center;shape=mxgraph.office.devices.phone_traditional;" parent="1" vertex="1">
                    <mxGeometry x="2630" y="518.65" width="40" height="26.35" as="geometry"/>
                </mxCell>
                <mxCell id="174" value="" style="whiteSpace=wrap;html=1;aspect=fixed;fontSize=36;" parent="1" vertex="1">
                    <mxGeometry x="2787.93" y="315.85" width="112.07" height="112.07" as="geometry"/>
                </mxCell>
                <mxCell id="175" value="" style="whiteSpace=wrap;html=1;aspect=fixed;fontSize=36;" parent="1" vertex="1">
                    <mxGeometry x="2927.4" y="315.85" width="110" height="110" as="geometry"/>
                </mxCell>
                <mxCell id="178" value="" style="shape=filledEdge;rounded=0;fixDash=1;endArrow=none;strokeWidth=10;fillColor=#ffffff;edgeStyle=orthogonalEdgeStyle;exitX=0.75;exitY=0;exitDx=0;exitDy=0;" parent="1" edge="1" source="7">
                    <mxGeometry width="60" height="40" relative="1" as="geometry">
                        <mxPoint x="100" y="70" as="sourcePoint"/>
                        <mxPoint x="900" as="targetPoint"/>
                        <Array as="points">
                            <mxPoint x="100" y="-70"/>
                            <mxPoint x="900" y="-70"/>
                        </Array>
                    </mxGeometry>
                </mxCell>
                <mxCell id="179" value="" style="shape=filledEdge;rounded=0;fixDash=1;endArrow=none;strokeWidth=10;fillColor=#ffffff;edgeStyle=orthogonalEdgeStyle;" parent="1" edge="1">
                    <mxGeometry width="60" height="40" relative="1" as="geometry">
                        <mxPoint x="325" y="20" as="sourcePoint"/>
                        <mxPoint x="1820" y="-10" as="targetPoint"/>
                        <Array as="points">
                            <mxPoint x="326" y="20"/>
                            <mxPoint x="325" y="20"/>
                            <mxPoint x="325" y="-102"/>
                            <mxPoint x="1820" y="-102"/>
                        </Array>
                    </mxGeometry>
                </mxCell>
                <mxCell id="180" value="" style="shape=filledEdge;rounded=0;fixDash=1;endArrow=none;strokeWidth=10;fillColor=#ffffff;edgeStyle=orthogonalEdgeStyle;" parent="1" edge="1">
                    <mxGeometry width="60" height="40" relative="1" as="geometry">
                        <mxPoint x="505" y="27.5" as="sourcePoint"/>
                        <mxPoint x="2774" y="-10" as="targetPoint"/>
                        <Array as="points">
                            <mxPoint x="504.6" y="-152.5"/>
                            <mxPoint x="2773.6" y="-152.5"/>
                        </Array>
                    </mxGeometry>
                </mxCell>
                <mxCell id="181" value="tên" style="text;html=1;resizable=0;autosize=1;align=center;verticalAlign=middle;points=[];fillColor=none;strokeColor=none;rounded=0;" parent="1" vertex="1">
                    <mxGeometry x="2650.85" y="80" width="30" height="20" as="geometry"/>
                </mxCell>
                <mxCell id="182" value="mã nhân viên" style="text;html=1;resizable=0;autosize=1;align=center;verticalAlign=middle;points=[];fillColor=none;strokeColor=none;rounded=0;" parent="1" vertex="1">
                    <mxGeometry x="2640.85" y="100" width="90" height="20" as="geometry"/>
                </mxCell>
                <mxCell id="183" value="hệ số lương" style="text;html=1;resizable=0;autosize=1;align=center;verticalAlign=middle;points=[];fillColor=none;strokeColor=none;rounded=0;" parent="1" vertex="1">
                    <mxGeometry x="2645.85" y="125" width="80" height="20" as="geometry"/>
                </mxCell>
                <mxCell id="185" value="số giờ làm thêm" style="text;html=1;resizable=0;autosize=1;align=center;verticalAlign=middle;points=[];fillColor=none;strokeColor=none;rounded=0;" parent="1" vertex="1">
                    <mxGeometry x="2645.85" y="150" width="100" height="20" as="geometry"/>
                </mxCell>
                <mxCell id="187" value="Lương" style="text;html=1;resizable=0;autosize=1;align=center;verticalAlign=middle;points=[];fillColor=none;strokeColor=none;rounded=0;" parent="1" vertex="1">
                    <mxGeometry x="2670" y="170" width="50" height="20" as="geometry"/>
                </mxCell>
                <mxCell id="189" value="Nhân Viên" style="strokeWidth=1;shadow=0;dashed=0;align=center;html=1;shape=mxgraph.mockup.buttons.button;strokeColor=#666666;fontColor=#ffffff;mainText=;buttonStyle=round;fontSize=17;fontStyle=1;fillColor=#FF0000;whiteSpace=wrap;" parent="1" vertex="1">
                    <mxGeometry x="140" y="33.75" width="100" height="20" as="geometry"/>
                </mxCell>
                <mxCell id="192" value="Phòng Ban" style="strokeWidth=1;shadow=0;dashed=0;align=center;html=1;shape=mxgraph.mockup.buttons.button;strokeColor=#666666;fontColor=#ffffff;mainText=;buttonStyle=round;fontSize=17;fontStyle=1;fillColor=#008cff;whiteSpace=wrap;" parent="1" vertex="1">
                    <mxGeometry x="285" y="33.12" width="122.5" height="21.25" as="geometry"/>
                </mxCell>
                <mxCell id="194" value="Bảng Lương" style="strokeWidth=1;shadow=0;dashed=0;align=center;html=1;shape=mxgraph.mockup.buttons.button;strokeColor=#666666;fontColor=#ffffff;mainText=;buttonStyle=round;fontSize=17;fontStyle=1;fillColor=#008cff;whiteSpace=wrap;" parent="1" vertex="1">
                    <mxGeometry x="455" y="30" width="116.4" height="26.25" as="geometry"/>
                </mxCell>
                <mxCell id="196" value="Phòng Ban" style="strokeWidth=1;shadow=0;dashed=0;align=center;html=1;shape=mxgraph.mockup.buttons.button;strokeColor=#666666;fontColor=#ffffff;mainText=;buttonStyle=round;fontSize=17;fontStyle=1;fillColor=#008cff;whiteSpace=wrap;" parent="1" vertex="1">
                    <mxGeometry x="1138.9" y="35" width="122.5" height="21.25" as="geometry"/>
                </mxCell>
                <mxCell id="197" value="Bảng Lương" style="strokeWidth=1;shadow=0;dashed=0;align=center;html=1;shape=mxgraph.mockup.buttons.button;strokeColor=#666666;fontColor=#ffffff;mainText=;buttonStyle=round;fontSize=17;fontStyle=1;fillColor=#008cff;whiteSpace=wrap;" parent="1" vertex="1">
                    <mxGeometry x="1301.24" y="31.250000000000004" width="120" height="26.87" as="geometry"/>
                </mxCell>
                <mxCell id="198" value="logo" style="ellipse;shape=doubleEllipse;whiteSpace=wrap;html=1;" parent="1" vertex="1">
                    <mxGeometry x="1730" y="12.5" width="90" height="42.5" as="geometry"/>
                </mxCell>
                <mxCell id="199" value="logo" style="ellipse;whiteSpace=wrap;html=1;aspect=fixed;" parent="1" vertex="1">
                    <mxGeometry x="1827.5" y="20" width="35" height="35" as="geometry"/>
                </mxCell>
                <mxCell id="200" value="Nhân Viên" style="strokeWidth=1;shadow=0;dashed=0;align=center;html=1;shape=mxgraph.mockup.buttons.button;strokeColor=#666666;fontColor=#ffffff;mainText=;buttonStyle=round;fontSize=17;fontStyle=1;fillColor=#008cff;whiteSpace=wrap;" parent="1" vertex="1">
                    <mxGeometry x="1862.5" y="38.75" width="100" height="20" as="geometry"/>
                </mxCell>
                <mxCell id="201" value="Phòng Ban" style="strokeWidth=1;shadow=0;dashed=0;align=center;html=1;shape=mxgraph.mockup.buttons.button;strokeColor=#666666;fontColor=#ffffff;mainText=;buttonStyle=round;fontSize=17;fontStyle=1;fillColor=#FF0000;whiteSpace=wrap;" parent="1" vertex="1">
                    <mxGeometry x="2000" y="38.129999999999995" width="122.5" height="21.25" as="geometry"/>
                </mxCell>
                <mxCell id="202" value="Bảng Lương" style="strokeWidth=1;shadow=0;dashed=0;align=center;html=1;shape=mxgraph.mockup.buttons.button;strokeColor=#666666;fontColor=#ffffff;mainText=;buttonStyle=round;fontSize=17;fontStyle=1;fillColor=#008cff;whiteSpace=wrap;" parent="1" vertex="1">
                    <mxGeometry x="2165" y="35" width="120" height="26.87" as="geometry"/>
                </mxCell>
                <mxCell id="203" value="logo" style="ellipse;whiteSpace=wrap;html=1;aspect=fixed;" parent="1" vertex="1">
                    <mxGeometry x="1962.5" y="26.25" width="35" height="35" as="geometry"/>
                </mxCell>
                <mxCell id="204" value="logo" style="ellipse;whiteSpace=wrap;html=1;aspect=fixed;" parent="1" vertex="1">
                    <mxGeometry x="2122.5" y="23.760000000000005" width="36.24" height="36.24" as="geometry"/>
                </mxCell>
                <mxCell id="205" value="logo" style="ellipse;shape=doubleEllipse;whiteSpace=wrap;html=1;" parent="1" vertex="1">
                    <mxGeometry x="2580" y="9.379999999999999" width="90" height="45" as="geometry"/>
                </mxCell>
                <mxCell id="206" value="Nhân Viên" style="strokeWidth=1;shadow=0;dashed=0;align=center;html=1;shape=mxgraph.mockup.buttons.button;strokeColor=#666666;fontColor=#ffffff;mainText=;buttonStyle=round;fontSize=17;fontStyle=1;fillColor=#008cff;whiteSpace=wrap;" parent="1" vertex="1">
                    <mxGeometry x="2710" y="34.68000000000001" width="100" height="20" as="geometry"/>
                </mxCell>
                <mxCell id="207" value="Phòng Ban" style="strokeWidth=1;shadow=0;dashed=0;align=center;html=1;shape=mxgraph.mockup.buttons.button;strokeColor=#666666;fontColor=#ffffff;mainText=;buttonStyle=round;fontSize=17;fontStyle=1;fillColor=#008cff;whiteSpace=wrap;" parent="1" vertex="1">
                    <mxGeometry x="2843.75" y="32.5" width="122.5" height="21.25" as="geometry"/>
                </mxCell>
                <mxCell id="208" value="Bảng Lương" style="strokeWidth=1;shadow=0;dashed=0;align=center;html=1;shape=mxgraph.mockup.buttons.button;strokeColor=#666666;fontColor=#ffffff;mainText=;buttonStyle=round;fontSize=17;fontStyle=1;fillColor=#FF0000;whiteSpace=wrap;" parent="1" vertex="1">
                    <mxGeometry x="3003.12" y="27.5" width="120" height="26.87" as="geometry"/>
                </mxCell>
                <mxCell id="209" value="logo" style="ellipse;whiteSpace=wrap;html=1;aspect=fixed;" parent="1" vertex="1">
                    <mxGeometry x="2675" y="18.759999999999998" width="35" height="35" as="geometry"/>
                </mxCell>
                <mxCell id="210" value="logo" style="ellipse;whiteSpace=wrap;html=1;aspect=fixed;" parent="1" vertex="1">
                    <mxGeometry x="2810" y="21.25" width="35" height="35" as="geometry"/>
                </mxCell>
                <mxCell id="211" value="logo" style="ellipse;whiteSpace=wrap;html=1;aspect=fixed;" parent="1" vertex="1">
                    <mxGeometry x="2966.88" y="21.25" width="36.24" height="36.24" as="geometry"/>
                </mxCell>
                <mxCell id="216" value="tên" style="text;html=1;resizable=0;autosize=1;align=center;verticalAlign=middle;points=[];fillColor=none;strokeColor=none;rounded=0;" parent="1" vertex="1">
                    <mxGeometry x="2787.93" y="80" width="30" height="20" as="geometry"/>
                </mxCell>
                <mxCell id="217" value="mã nhân viên" style="text;html=1;resizable=0;autosize=1;align=center;verticalAlign=middle;points=[];fillColor=none;strokeColor=none;rounded=0;" parent="1" vertex="1">
                    <mxGeometry x="2782.5" y="100" width="90" height="20" as="geometry"/>
                </mxCell>
                <mxCell id="218" value="hệ số lương" style="text;html=1;resizable=0;autosize=1;align=center;verticalAlign=middle;points=[];fillColor=none;strokeColor=none;rounded=0;" parent="1" vertex="1">
                    <mxGeometry x="2785" y="120" width="80" height="20" as="geometry"/>
                </mxCell>
                <mxCell id="220" value="số giờ làm thêm" style="text;html=1;resizable=0;autosize=1;align=center;verticalAlign=middle;points=[];fillColor=none;strokeColor=none;rounded=0;" parent="1" vertex="1">
                    <mxGeometry x="2786.25" y="140" width="100" height="20" as="geometry"/>
                </mxCell>
                <mxCell id="221" value="Lương" style="text;html=1;resizable=0;autosize=1;align=center;verticalAlign=middle;points=[];fillColor=none;strokeColor=none;rounded=0;" parent="1" vertex="1">
                    <mxGeometry x="2813.97" y="170" width="50" height="20" as="geometry"/>
                </mxCell>
                <mxCell id="223" value="tên" style="text;html=1;resizable=0;autosize=1;align=center;verticalAlign=middle;points=[];fillColor=none;strokeColor=none;rounded=0;" parent="1" vertex="1">
                    <mxGeometry x="2930" y="80" width="30" height="20" as="geometry"/>
                </mxCell>
                <mxCell id="224" value="mã nhân viên" style="text;html=1;resizable=0;autosize=1;align=center;verticalAlign=middle;points=[];fillColor=none;strokeColor=none;rounded=0;" parent="1" vertex="1">
                    <mxGeometry x="2930" y="100" width="90" height="20" as="geometry"/>
                </mxCell>
                <mxCell id="225" value="hệ số lương" style="text;html=1;resizable=0;autosize=1;align=center;verticalAlign=middle;points=[];fillColor=none;strokeColor=none;rounded=0;" parent="1" vertex="1">
                    <mxGeometry x="2935" y="120" width="80" height="20" as="geometry"/>
                </mxCell>
                <mxCell id="226" value="số giờ làm thêm" style="text;html=1;resizable=0;autosize=1;align=center;verticalAlign=middle;points=[];fillColor=none;strokeColor=none;rounded=0;" parent="1" vertex="1">
                    <mxGeometry x="2929.15" y="140" width="100" height="20" as="geometry"/>
                </mxCell>
                <mxCell id="227" value="Lương" style="text;html=1;resizable=0;autosize=1;align=center;verticalAlign=middle;points=[];fillColor=none;strokeColor=none;rounded=0;" parent="1" vertex="1">
                    <mxGeometry x="2957.3999999999996" y="170" width="50" height="20" as="geometry"/>
                </mxCell>
                <mxCell id="228" value="Như trên" style="text;html=1;resizable=0;autosize=1;align=center;verticalAlign=middle;points=[];fillColor=none;strokeColor=none;rounded=0;" parent="1" vertex="1">
                    <mxGeometry x="2665" y="235" width="60" height="20" as="geometry"/>
                </mxCell>
                <mxCell id="229" value="Như trên" style="text;html=1;resizable=0;autosize=1;align=center;verticalAlign=middle;points=[];fillColor=none;strokeColor=none;rounded=0;" parent="1" vertex="1">
                    <mxGeometry x="2949.57" y="360.42" width="60" height="20" as="geometry"/>
                </mxCell>
                <mxCell id="230" value="Như trên" style="text;html=1;resizable=0;autosize=1;align=center;verticalAlign=middle;points=[];fillColor=none;strokeColor=none;rounded=0;" parent="1" vertex="1">
                    <mxGeometry x="2803.97" y="360.42" width="60" height="20" as="geometry"/>
                </mxCell>
                <mxCell id="231" value="Như trên" style="text;html=1;resizable=0;autosize=1;align=center;verticalAlign=middle;points=[];fillColor=none;strokeColor=none;rounded=0;" parent="1" vertex="1">
                    <mxGeometry x="2665" y="367.98" width="60" height="20" as="geometry"/>
                </mxCell>
                <mxCell id="232" value="Như trên" style="text;html=1;resizable=0;autosize=1;align=center;verticalAlign=middle;points=[];fillColor=none;strokeColor=none;rounded=0;" parent="1" vertex="1">
                    <mxGeometry x="2953" y="240" width="60" height="20" as="geometry"/>
                </mxCell>
                <mxCell id="233" value="Như trên" style="text;html=1;resizable=0;autosize=1;align=center;verticalAlign=middle;points=[];fillColor=none;strokeColor=none;rounded=0;" parent="1" vertex="1">
                    <mxGeometry x="2797.5" y="235" width="60" height="20" as="geometry"/>
                </mxCell>
                <mxCell id="236" value="" style="shape=singleArrow;whiteSpace=wrap;html=1;fillColor=#66FFFF;" parent="1" vertex="1">
                    <mxGeometry x="-115" y="9.690000000000001" width="100" height="40.62" as="geometry"/>
                </mxCell>
                <mxCell id="237" value="" style="shape=singleArrow;whiteSpace=wrap;html=1;fillColor=#66FFFF;" parent="1" vertex="1">
                    <mxGeometry x="-100" y="432.5" width="100" height="46.45" as="geometry"/>
                </mxCell>
                <mxCell id="238" value="" style="shape=singleArrow;whiteSpace=wrap;html=1;fillColor=#66FFFF;" parent="1" vertex="1">
                    <mxGeometry x="-100" y="200" width="100" height="40" as="geometry"/>
                </mxCell>
                <mxCell id="239" value="HeaderComponent" style="text;html=1;resizable=0;autosize=1;align=center;verticalAlign=middle;points=[];fillColor=#FFFF99;strokeColor=none;rounded=0;" parent="1" vertex="1">
                    <mxGeometry x="-155" y="34.99999999999999" width="120" height="20" as="geometry"/>
                </mxCell>
                <mxCell id="240" value="FooterComponent" style="text;html=1;resizable=0;autosize=1;align=center;verticalAlign=middle;points=[];fillColor=#FFFF99;strokeColor=none;rounded=0;" parent="1" vertex="1">
                    <mxGeometry x="-125" y="425.84999999999997" width="110" height="20" as="geometry"/>
                </mxCell>
                <mxCell id="241" value="Component 1" style="text;html=1;resizable=0;autosize=1;align=center;verticalAlign=middle;points=[];fillColor=#FFFF99;strokeColor=none;rounded=0;" parent="1" vertex="1">
                    <mxGeometry x="-115" y="192.5" width="90" height="20" as="geometry"/>
                </mxCell>
                <mxCell id="242" value="" style="shape=singleArrow;whiteSpace=wrap;html=1;fillColor=#66FFFF;" parent="1" vertex="1">
                    <mxGeometry x="850" y="190" width="60" height="30" as="geometry"/>
                </mxCell>
                <mxCell id="243" value="Component 1'" style="text;html=1;resizable=0;autosize=1;align=center;verticalAlign=middle;points=[];fillColor=#FFFF99;strokeColor=none;rounded=0;" parent="1" vertex="1">
                    <mxGeometry x="825" y="170" width="90" height="20" as="geometry"/>
                </mxCell>
                <mxCell id="244" value="" style="shape=singleArrow;whiteSpace=wrap;html=1;fillColor=#66FFFF;" parent="1" vertex="1">
                    <mxGeometry x="1700" y="170" width="50" height="40" as="geometry"/>
                </mxCell>
                <mxCell id="246" value="" style="shape=singleArrow;whiteSpace=wrap;html=1;fillColor=#66FFFF;" parent="1" vertex="1">
                    <mxGeometry x="2545.85" y="185" width="100" height="35" as="geometry"/>
                </mxCell>
                <mxCell id="247" value="Component 3" style="text;html=1;resizable=0;autosize=1;align=center;verticalAlign=middle;points=[];fillColor=#FFFF99;strokeColor=none;rounded=0;" parent="1" vertex="1">
                    <mxGeometry x="2545" y="175" width="90" height="20" as="geometry"/>
                </mxCell>
                <mxCell id="248" value="Component 2" style="text;html=1;resizable=0;autosize=1;align=center;verticalAlign=middle;points=[];fillColor=#FFFF99;strokeColor=none;rounded=0;" parent="1" vertex="1">
                    <mxGeometry x="1650" y="165" width="90" height="20" as="geometry"/>
                </mxCell>
                <mxCell id="249" value="Nhân viên" style="strokeWidth=1;shadow=0;dashed=0;align=center;html=1;shape=mxgraph.mockup.buttons.button;strokeColor=#666666;fontColor=#ffffff;mainText=;buttonStyle=round;fontSize=17;fontStyle=1;fillColor=#008cff;whiteSpace=wrap;" vertex="1" parent="1">
                    <mxGeometry x="1000" y="35.63" width="100" height="20" as="geometry"/>
                </mxCell>
                <mxCell id="250" value="Nhân Viên / tên nhân viên" style="text;html=1;resizable=0;autosize=1;align=center;verticalAlign=middle;points=[];fillColor=#99FFFF;strokeColor=none;rounded=0;" vertex="1" parent="1">
                    <mxGeometry x="860" y="80" width="150" height="20" as="geometry"/>
                </mxCell>
            </root>
        </mxGraphModel>
    </diagram>
</mxfile>